<?xml version="1.0" encoding="utf-8"?>
<!-- Generator: Adobe Illustrator 24.3.0, SVG Export Plug-In . SVG Version: 6.00 Build 0)  -->
<svg version="1.1" id="Layer_1" xmlns="http://www.w3.org/2000/svg" xmlns:xlink="http://www.w3.org/1999/xlink" x="0px" y="0px"
	 viewBox="0 0 1500 1000" style="enable-background:new 0 0 1500 1000;" xml:space="preserve">
<style type="text/css">
	.st0{opacity:0.3;fill:none;}
	.st1{opacity:0.3;fill:#031926;}
	.st2{opacity:0.3;fill:#51A2D0;}
	.st3{opacity:0.3;fill:#FFFFFF;}
	.st4{opacity:0.3;fill:#6C63FF;}
</style>
<path class="st0" d="M0,0h1500v1000H0V0z"/>
<polygon class="st1" points="1432.9,973.9 1436.1,980.8 1421.9,985.1 1418.7,978.1 "/>
<polygon class="st2" points="1154.9,685.4 1159.5,687 1155.4,696.5 1150.8,695 "/>
<polygon class="st1" points="365,910.3 360.7,912.8 356,904 360.4,901.5 "/>
<polygon class="st3" points="1140.8,125.9 1139.4,134.6 1121.6,130.2 1123,121.5 "/>
<polygon class="st3" points="788.8,877.8 784,880 782.5,875.4 787.3,873.3 "/>
<polygon class="st3" points="201,140.5 204.8,146.3 190.9,150.5 187.2,144.7 "/>
<polygon class="st4" points="110.2,222.7 106.7,224.9 97.8,214.8 101.3,212.5 "/>
<polygon class="st4" points="1415,1192.6 1414.5,1199.4 1399.3,1193.5 1399.8,1186.8 "/>
<polygon class="st3" points="1020.2,384.8 1024.9,387.6 1022.2,393.4 1017.5,390.6 "/>
<polygon class="st3" points="583,297.3 579.3,301.5 573.1,295.6 576.8,291.4 "/>
<polygon class="st2" points="311.6,162.4 307,166.6 302.4,161.7 307,157.4 "/>
<polygon class="st3" points="136.5,47.1 133.3,50.9 123.2,42.3 126.4,38.5 "/>
<polygon class="st4" points="226.9,489.8 221.8,492.7 213.4,478.6 218.5,475.7 "/>
<polygon class="st4" points="197.6,713.3 196.4,718.6 189.3,714.8 190.5,709.5 "/>
<polygon class="st2" points="147.7,382 151.3,386.7 143.5,390.4 139.9,385.6 "/>
<polygon class="st1" points="1125.3,440.7 1130.1,441.4 1128.2,449.3 1123.3,448.6 "/>
<polygon class="st4" points="444.8,70.3 452,73.3 449.4,85.9 442.2,82.9 "/>
<polygon class="st1" points="590.1,475.2 595.2,478.2 591.1,488.6 586,485.6 "/>
<polygon class="st2" points="878.5,635.1 875.9,641.5 860.9,632.4 863.6,626 "/>
<polygon class="st3" points="849.4,407.3 845.3,414.8 830.6,404.2 834.7,396.8 "/>
<polygon class="st1" points="368.4,488.9 369.4,496.9 359.1,495.5 358.1,487.5 "/>
<polygon class="st3" points="674.6,657.8 682.4,658.9 680.4,674 672.6,672.9 "/>
<polygon class="st3" points="1400.8,1094.6 1396.4,1096.2 1392.3,1087.6 1396.7,1086 "/>
<polygon class="st2" points="893.2,775.3 889.5,777.3 884.9,771.8 888.7,769.7 "/>
<polygon class="st4" points="944.4,663.3 937.1,666.2 930.6,651.2 937.9,648.4 "/>
<polygon class="st4" points="283.9,206.6 278.7,211.7 258.9,191.1 264.1,186.1 "/>
<rect x="882.3" y="265.9" transform="matrix(0.662 -0.7495 0.7495 0.662 92.2318 757.2343)" class="st2" width="6.9" height="20.9"/>
<polygon class="st4" points="1007.8,433.8 1011.1,441.9 989.8,451.7 986.4,443.5 "/>
<polygon class="st3" points="691.7,1186.6 694.1,1194 679.3,1192.4 676.9,1185 "/>
<polygon class="st1" points="144,805.2 142,813.2 132.5,811 134.5,803.1 "/>
<polygon class="st3" points="1148.5,523.6 1141.3,524.5 1127.2,500.6 1134.4,499.7 "/>
<polygon class="st3" points="950.3,514.6 943,516.6 943.9,499.1 951.2,497.1 "/>
<polygon class="st3" points="361.5,157.5 356.5,157.2 352.6,144.1 357.6,144.3 "/>
<polygon class="st1" points="566.7,-61.2 560.4,-56.5 555,-63.8 561.3,-68.6 "/>
<polygon class="st1" points="1188.9,1029.8 1193.5,1033.8 1184.7,1044.2 1180.1,1040.2 "/>
<polygon class="st3" points="285.7,165.3 290.9,170.1 280.5,182.1 275.3,177.4 "/>
<polygon class="st4" points="78.2,381.6 80.5,390.2 71.8,392.8 69.5,384.2 "/>
<polygon class="st3" points="893.8,429.6 894.7,438.6 868.8,440.4 867.9,431.4 "/>
<polygon class="st4" points="1103.7,1068.8 1102.2,1074.8 1090.9,1069.1 1092.3,1063.1 "/>
<polygon class="st3" points="510.5,551.1 508.3,557 494.2,554.2 496.4,548.2 "/>
<polygon class="st2" points="1328.9,380.7 1333.5,386.2 1322.3,392.4 1317.7,386.8 "/>
<polygon class="st1" points="962.3,421.2 968.9,429.8 956.5,435.4 949.8,426.7 "/>
<polygon class="st3" points="1309.2,1088.5 1315.6,1092.6 1312.2,1099.2 1305.8,1095.1 "/>
<polygon class="st2" points="739.7,400.2 741.9,408.3 719.5,409.9 717.3,401.9 "/>
<polygon class="st3" points="246,510.3 241,513.5 228.1,496.3 233.1,493.2 "/>
<polygon class="st3" points="441.7,1063.2 439.4,1071.6 428.8,1067.5 431.2,1059 "/>
<polygon class="st1" points="1262.9,338.2 1260.4,341.9 1256,338.5 1258.5,334.8 "/>
<polygon class="st3" points="1431.4,939.8 1438.6,944.6 1435.6,954.2 1428.4,949.5 "/>
<polygon class="st4" points="943.5,265.8 935.8,269.5 929.3,251.6 936.9,248 "/>
<polygon class="st4" points="557.5,659.7 550.3,661.6 541.4,645.1 548.6,643.2 "/>
<polygon class="st1" points="525.3,505.4 518.2,504.7 512.7,487.4 519.8,488.1 "/>
<polygon class="st1" points="145.7,244.2 151.1,249.7 143.1,257.2 137.8,251.8 "/>
<polygon class="st3" points="1265.6,531.5 1264,536.1 1252.6,531.8 1254.1,527.2 "/>
<polygon class="st1" points="208.7,148.3 214.7,148.7 213.3,156.7 207.3,156.3 "/>
<polygon class="st2" points="1440.2,946.2 1449.1,951.2 1446.8,960.9 1437.8,955.9 "/>
<polygon class="st3" points="383.6,823.5 375.8,827.1 364.1,806.8 371.8,803.2 "/>
<polygon class="st3" points="506,312.4 502.3,318.2 485.9,306.1 489.6,300.3 "/>
<polygon class="st4" points="1227.7,966.4 1236.9,970.5 1238.4,983.5 1229.3,979.4 "/>
<polygon class="st3" points="1554.6,471.7 1559.7,472.5 1560.5,481.4 1555.4,480.6 "/>
<polygon class="st1" points="1596,714.2 1603.9,720.5 1593,735.1 1585.1,728.8 "/>
<polygon class="st4" points="1363.8,303.7 1369.4,306.4 1363.9,320.9 1358.3,318.3 "/>
<polygon class="st4" points="273.3,284.4 275.5,293.2 266.8,295.3 264.7,286.5 "/>
<polygon class="st1" points="1196,326.6 1190,330.9 1182.6,321.5 1188.6,317.2 "/>
<polygon class="st4" points="301.5,220.6 304.7,226.9 297.5,227.6 294.2,221.3 "/>
<polygon class="st2" points="991,724.8 992.2,732.8 982.3,733.5 981,725.5 "/>
<polygon class="st1" points="856.5,500.8 851.1,507.9 835.9,496.2 841.3,489.1 "/>
<polygon class="st1" points="1276.7,341.9 1286,345.1 1285.9,358.7 1276.7,355.5 "/>
<polygon class="st1" points="624.8,878.4 616.2,878.3 613.8,860.4 622.4,860.6 "/>
<polygon class="st4" points="54.9,474 51.6,480.1 45.6,476.4 48.8,470.3 "/>
<polygon class="st2" points="1186.8,-92.5 1185.1,-84.6 1167.7,-88.4 1169.5,-96.3 "/>
<polygon class="st3" points="1598.3,560.8 1602.3,565.2 1597.5,568.7 1593.5,564.3 "/>
<polygon class="st2" points="566.8,95.3 562.3,103.3 544.1,93.4 548.6,85.4 "/>
<polygon class="st1" points="1579.4,733.5 1588.1,732.6 1593.9,752.6 1585.2,753.6 "/>
<polygon class="st1" points="200.4,79.2 195.1,83 187.7,71.2 193,67.4 "/>
<polygon class="st3" points="268.3,120 266.8,128.9 240.4,131.7 241.8,122.7 "/>
<polygon class="st4" points="877.8,908.1 878.6,913.1 869.8,913.9 869,908.9 "/>
<polygon class="st4" points="247.6,833.6 242.1,834.7 235.8,817.5 241.3,816.4 "/>
<polygon class="st4" points="1254.7,351.4 1260,354.1 1254.3,364.9 1249,362.2 "/>
<polygon class="st1" points="1358,873.8 1358,878.8 1353,879.1 1353,874.1 "/>
<polygon class="st2" points="567.4,593.5 570.8,596.6 565.6,602.1 562.2,599 "/>
<polygon class="st2" points="1356.5,1121.5 1366,1124.2 1367.7,1138 1358.2,1135.3 "/>
<polygon class="st1" points="1105.6,305.1 1106.8,310.1 1095.2,312 1094.1,307 "/>
<polygon class="st4" points="840.2,267.4 844.1,273.4 834.3,277 830.4,271.1 "/>
<polygon class="st1" points="219,107.6 227.3,110.8 226.8,118.4 218.5,115.2 "/>
<polygon class="st4" points="310.6,698.4 312.2,707.3 286.3,703.4 284.8,694.4 "/>
<polygon class="st1" points="368.9,126.9 362.2,131.5 355.1,120.8 361.8,116.2 "/>
<polygon class="st3" points="413.1,839.2 422,839.4 420.4,855.6 411.5,855.4 "/>
<polygon class="st1" points="265.3,568.1 267.8,574.3 261.3,577.6 258.7,571.4 "/>
<polygon class="st2" points="770.2,856.8 774.4,864.1 762.4,870 758.3,862.7 "/>
<polygon class="st1" points="951.2,1000.6 958.2,1001.9 958.1,1010.9 951,1009.5 "/>
<polygon class="st1" points="1548.3,587.9 1542,594.4 1527.5,579.3 1533.9,572.9 "/>
<polygon class="st3" points="1206.3,751.5 1199.3,753.6 1189.4,737.1 1196.4,735 "/>
<polygon class="st2" points="127.2,261.5 134.2,262.7 133.6,282.4 126.5,281.2 "/>
<polygon class="st4" points="291.6,419.3 289,425.2 272.8,415.6 275.5,409.8 "/>
<polygon class="st1" points="313.7,829 312.1,837.9 294.6,833.2 296.2,824.3 "/>
<polygon class="st2" points="255.5,665.7 254.6,671.3 240.4,666.3 241.4,660.7 "/>
<polygon class="st2" points="1225.7,1242 1225.2,1248.3 1217.7,1244.5 1218.2,1238.2 "/>
<polygon class="st4" points="210.1,38.5 213.5,44 205.9,47.6 202.5,42.1 "/>
<polygon class="st2" points="1309.2,892.2 1315.1,896 1311.7,903 1305.8,899.2 "/>
<polygon class="st2" points="348.4,1121.7 356,1126.5 350.5,1143.1 342.9,1138.4 "/>
<polygon class="st1" points="1475,773 1470.4,774.5 1468.2,769.7 1472.7,768.2 "/>
<polygon class="st2" points="920.5,15.1 917.3,23.5 901.5,16.8 904.7,8.4 "/>
<polygon class="st2" points="1410.3,163.1 1415.3,164.2 1414.6,177.9 1409.5,176.9 "/>
<polygon class="st1" points="116.3,20.7 121.8,24.6 110.8,39.6 105.3,35.7 "/>
<polygon class="st4" points="401.3,984.8 396.7,988.9 386.2,977.2 390.8,973.1 "/>
<polygon class="st3" points="1133.9,567.9 1129.7,571 1125.9,565.6 1130.2,562.5 "/>
<polygon class="st3" points="1322.5,252.2 1326.9,258.5 1313.4,266.2 1309,259.9 "/>
<polygon class="st3" points="486.9,153.9 494.5,158 493.2,163.8 485.7,159.7 "/>
<polygon class="st2" points="1679.8,921.4 1675.2,921.8 1667.6,908.3 1672.2,907.9 "/>
<polygon class="st4" points="625,372.5 620.3,377.2 610.1,366.7 614.7,361.9 "/>
<polygon class="st3" points="1143.1,697.6 1144.9,703.2 1135.4,706.8 1133.6,701.2 "/>
<polygon class="st2" points="139.3,609.6 136.1,614.7 128.9,608.7 132.1,603.5 "/>
<polygon class="st4" points="368.6,209.6 367.6,218.6 348.6,218.6 349.6,209.6 "/>
<polygon class="st3" points="198.2,302 203.7,307.4 191.7,319.8 186.2,314.4 "/>
<polygon class="st3" points="1413,351.6 1419.7,355.4 1414.8,367.1 1408,363.3 "/>
<polygon class="st1" points="1148.1,347.8 1143.1,347.5 1137.3,333.2 1142.4,333.5 "/>
<polygon class="st2" points="1323.9,595.9 1318,598.5 1309.9,584.1 1315.8,581.5 "/>
<polygon class="st2" points="956,363.4 962.7,366 959.8,376.3 953.1,373.8 "/>
<polygon class="st3" points="1034.1,862.8 1030.6,868.4 1012.2,854.9 1015.7,849.2 "/>
<polygon class="st3" points="804.6,538.5 803.5,542.8 797.3,539.7 798.4,535.4 "/>
<polygon class="st2" points="1391.7,738.7 1388.2,745.2 1373.5,733.7 1377.1,727.2 "/>
<polygon class="st4" points="687.7,720.3 694.6,720.4 696,737.6 689.1,737.5 "/>
<polygon class="st3" points="-59.8,468.9 -67.5,470.4 -69.8,459.4 -62.2,457.8 "/>
<polygon class="st3" points="492.4,416.8 486,417.8 481.4,409.7 487.8,408.7 "/>
<polygon class="st4" points="239.7,675.5 241,682.3 225.3,686.2 224,679.4 "/>
<polygon class="st4" points="477.4,873.2 484,878.9 472.1,893.1 465.5,887.3 "/>
<polygon class="st2" points="721.5,226.1 721.6,234.3 710.5,229.8 710.4,221.7 "/>
<polygon class="st4" points="1050.2,1175.2 1048.3,1181 1038.4,1174.6 1040.3,1168.8 "/>
<polygon class="st2" points="206.9,90.8 210.9,94.2 206.2,101.4 202.2,98.1 "/>
<polygon class="st4" points="1566,1440.8 1573.4,1444.9 1571.9,1454.6 1564.5,1450.4 "/>
<polygon class="st2" points="1087.2,1152.7 1088.7,1158.9 1081.5,1157.2 1080,1151 "/>
<polygon class="st2" points="1509.4,779.7 1514.8,785.6 1501.9,796 1496.4,790.1 "/>
<polygon class="st2" points="485.3,304.6 480,306.5 473.3,294.1 478.5,292.2 "/>
<polygon class="st3" points="1412.2,466.9 1412.6,473.8 1396.3,471.6 1395.9,464.6 "/>
<polygon class="st4" points="401.7,928.6 408,931.5 400.1,947.9 393.8,945.1 "/>
<polygon class="st4" points="1427.8,322.3 1420.9,325.2 1408.4,309.8 1415.4,306.8 "/>
<polygon class="st2" points="438.3,218.7 436.5,226.6 428.7,225.3 430.5,217.4 "/>
<polygon class="st1" points="695.3,452.9 690.4,453.7 687.7,441.8 692.6,441 "/>
<polygon class="st3" points="87.2,849.8 78.9,852.7 72.8,838.5 81,835.6 "/>
<polygon class="st2" points="1471.9,604.1 1478.7,610.3 1468.8,621.1 1462,614.8 "/>
<polygon class="st4" points="687.4,713.6 692.3,716.7 689.6,723 684.6,719.9 "/>
<polygon class="st4" points="601.4,280.2 594.5,282.8 588.8,272.3 595.7,269.7 "/>
<polygon class="st4" points="394.4,878.8 401.3,878.2 402.4,885.3 395.6,885.9 "/>
<polygon class="st3" points="459.5,65.2 460.6,70.1 449.8,71.1 448.7,66.1 "/>
<polygon class="st2" points="397.8,284.5 395.2,290.9 385.2,285.8 387.8,279.4 "/>
<polygon class="st1" points="1241.7,719.6 1240.6,724.1 1226.5,718 1227.6,713.5 "/>
<polygon class="st4" points="167.7,1006.8 162.8,1005.9 163.1,998.8 167.9,999.7 "/>
<polygon class="st4" points="639.7,407.2 638.2,414.2 631.2,414.6 632.6,407.5 "/>
<polygon class="st4" points="359.9,948 368.9,948 367.8,957 358.8,957 "/>
<polygon class="st3" points="27.9,206.8 33.4,209.9 27.3,218.1 21.9,215 "/>
<polygon class="st3" points="1404.5,-68.4 1409.4,-62.7 1399.2,-53.4 1394.3,-59.1 "/>
<polygon class="st2" points="1649.9,987.7 1648.6,991.7 1634.1,983.2 1635.4,979.1 "/>
<polygon class="st2" points="928.5,3 927.6,7.8 922.7,6.2 923.5,1.5 "/>
<polygon class="st2" points="1323.6,890.9 1317.3,893.5 1312.9,884.2 1319.2,881.6 "/>
<polygon class="st1" points="345.6,363.3 350.6,363.4 351.1,376.4 346.1,376.3 "/>
<polygon class="st2" points="796.8,974.7 804.2,982.8 788.6,993.7 781.2,985.7 "/>
<polygon class="st1" points="1013.7,902.2 1011.6,910.2 995.1,908.1 997.2,900.1 "/>
<polygon class="st1" points="1627.5,1416.7 1620.2,1414.9 1616.7,1402.7 1624.1,1404.5 "/>
<polygon class="st2" points="521.4,168.4 516.4,174.1 505.9,165 511,159.3 "/>
<polygon class="st1" points="211.7,701.8 216.3,706.4 212.2,710 207.7,705.5 "/>
<polygon class="st3" points="609.8,380.9 610,389.7 588.5,385.4 588.3,376.6 "/>
<polygon class="st1" points="1774.7,1308.7 1776.5,1314.7 1760.4,1310.6 1758.5,1304.6 "/>
<polygon class="st3" points="630,768.2 635.4,776.6 627.2,777.3 621.8,768.9 "/>
<polygon class="st4" points="1026.8,821.2 1033.2,828.5 1020.8,838.5 1014.5,831.2 "/>
<polygon class="st3" points="1236.4,249.9 1230.8,255.5 1215.3,240 1220.9,234.3 "/>
<polygon class="st1" points="1234.2,547.2 1239.4,547.9 1240.8,554.8 1235.6,554.1 "/>
<polygon class="st4" points="576.8,465.7 573.1,467.3 567,460.3 570.7,458.8 "/>
<polygon class="st3" points="422.2,271.7 431.1,271.5 433.5,281.6 424.5,281.7 "/>
<polygon class="st1" points="494.1,87.3 490.5,95.9 474.2,89.9 477.8,81.4 "/>
<polygon class="st1" points="1297.6,-48.6 1304.5,-45.7 1302,-35.6 1295.1,-38.5 "/>
<polygon class="st2" points="730.7,239 726.8,245.5 712.2,234.7 716,228.3 "/>
<polygon class="st3" points="1360,703.8 1356.2,708 1351.6,703.5 1355.4,699.3 "/>
<polygon class="st1" points="691.9,827.3 690.7,833.3 679.1,830.7 680.2,824.8 "/>
<polygon class="st1" points="1305.4,438.3 1304,446.4 1287.2,446.1 1288.6,438 "/>
<polygon class="st4" points="1008.1,200.1 1003.1,204.7 996.9,197.9 1001.9,193.3 "/>
<polygon class="st2" points="822.1,465.4 826.8,473.6 805.3,484.2 800.6,476 "/>
<polygon class="st2" points="338.7,933.6 346.3,939 336.7,954.4 329.1,948.9 "/>
<polygon class="st1" points="638.3,490.4 645.6,495.7 640.2,505.2 632.9,499.9 "/>
<polygon class="st3" points="1031.5,157.4 1035.3,165.2 1024.5,168 1020.6,160.1 "/>
<polygon class="st3" points="180.5,569.7 177.7,576.6 167.2,571.1 170,564.2 "/>
<polygon class="st1" points="-3.6,636.6 5.4,636.6 2.8,655.6 -6.2,655.6 "/>
<polygon class="st3" points="728.9,589.2 731.2,597.2 721.3,597.7 719.1,589.7 "/>
<polygon class="st3" points="453.3,511.3 459.3,520.6 441.8,525.2 435.9,515.9 "/>
<polygon class="st1" points="103.7,175.7 108.6,176.4 107.6,188.3 102.6,187.5 "/>
<polygon class="st1" points="189.4,1005.2 193.1,1009.3 188.4,1013.6 184.7,1009.5 "/>
<polygon class="st4" points="1387.5,673.6 1384.1,682.4 1365.6,677.5 1368.9,668.7 "/>
<polygon class="st2" points="726.8,1081.7 721.9,1087.9 702.7,1069.8 707.6,1063.6 "/>
<polygon class="st2" points="320.3,742.4 323.2,747.3 310.6,750 307.7,745.1 "/>
<polygon class="st3" points="1280.7,729.7 1277.2,732.6 1271.8,725.6 1275.3,722.7 "/>
<polygon class="st2" points="788.6,272.1 783.9,272.8 779.3,260.8 784,260.1 "/>
<polygon class="st3" points="1016.9,688.3 1011.2,693.8 1006.9,689.4 1012.6,683.9 "/>
<polygon class="st1" points="1404.6,368.8 1399.5,376.5 1388.8,369.8 1393.8,362.1 "/>
<polygon class="st2" points="10.8,939.7 9.1,948.4 -12.4,941.4 -10.6,932.8 "/>
<polygon class="st3" points="1394.6,226.8 1386.8,230.7 1382.7,219.3 1390.5,215.4 "/>
<polygon class="st4" points="149.9,571.3 150.4,576.2 140.8,572.6 140.3,567.8 "/>
<polygon class="st3" points="1438.7,79.7 1441.4,84.6 1432.4,90.5 1429.7,85.6 "/>
<polygon class="st2" points="158.8,299.1 166.3,303 159,321.6 151.5,317.7 "/>
<polygon class="st2" points="1270.8,382.7 1265,390.2 1252.7,381.3 1258.5,373.8 "/>
<polygon class="st4" points="946.1,108.6 941.8,109.9 934.2,98.3 938.5,97 "/>
<polygon class="st1" points="789.8,1014.4 787.9,1022.7 775.2,1016.8 777.1,1008.5 "/>
<polygon class="st2" points="1409.7,578.4 1405.5,582.4 1398.4,575 1402.7,571 "/>
<polygon class="st1" points="1511.3,978.3 1519.9,980.8 1521.3,994.3 1512.7,991.8 "/>
<polygon class="st1" points="548.2,55.4 547.5,63.4 527.4,65.5 528.1,57.5 "/>
<polygon class="st3" points="237.7,753.3 237.6,758.2 229.5,756.7 229.6,751.8 "/>
<polygon class="st2" points="991.2,537.9 983.4,537.9 978.1,524.5 985.9,524.5 "/>
<polygon class="st1" points="941.7,550.5 937.8,556.9 921.9,546 925.8,539.6 "/>
<polygon class="st4" points="737.9,132.4 740.8,139.9 720.6,148.3 717.7,140.8 "/>
<polygon class="st4" points="69.1,958.2 67.7,965.1 59.9,963.7 61.3,956.8 "/>
<polygon class="st4" points="74,961.2 82.5,964.6 77.1,983.4 68.5,980 "/>
<polygon class="st1" points="760.5,681.8 759,689.6 745.3,686.7 746.8,678.9 "/>
<polygon class="st3" points="1416.1,889.6 1413.2,897 1392.8,888.3 1395.6,880.9 "/>
<polygon class="st1" points="308.3,593.2 308.6,599.9 300.1,597.4 299.9,590.8 "/>
<polygon class="st4" points="292.8,743.2 289.8,747.2 285.9,744.1 289,740.1 "/>
<polygon class="st2" points="71.6,367.4 64,369.4 59.9,357.7 67.4,355.8 "/>
<polygon class="st1" points="606,279.1 614.3,283.1 611.4,300.2 603.2,296.2 "/>
<polygon class="st3" points="905.7,377.8 913.5,382 912.4,396.8 904.7,392.5 "/>
<polygon class="st1" points="1482.4,124.8 1473.4,126.4 1472.8,114.4 1481.8,112.9 "/>
<polygon class="st4" points="439.9,654.1 441.6,660.2 426.9,656.7 425.2,650.5 "/>
<polygon class="st4" points="1189.7,623.2 1194.8,626.9 1188.5,636.4 1183.3,632.7 "/>
<polygon class="st2" points="1481.9,331.3 1482.1,336.2 1474.9,334.7 1474.7,329.8 "/>
<polygon class="st4" points="623.9,163 618.9,162.7 618.1,150.7 623.1,151 "/>
<polygon class="st3" points="1297.5,408.7 1304.4,412.8 1293,428 1286,423.9 "/>
<rect x="503.9" y="895.4" transform="matrix(0.9744 -0.225 0.225 0.9744 -191.3727 137.6882)" class="st1" width="9" height="26"/>
<polygon class="st2" points="1274,191.2 1266.7,198.1 1250.6,181.3 1258,174.4 "/>
<polygon class="st3" points="1296.3,1027.3 1288.6,1030.3 1277.7,1012.2 1285.4,1009.3 "/>
<polygon class="st1" points="584.5,759.4 579.3,760.9 572.4,749 577.6,747.5 "/>
<polygon class="st2" points="1576.9,1206.6 1573.7,1212.1 1561,1203 1564.1,1197.5 "/>
<polygon class="st4" points="198.5,881.1 192.4,887.8 177.8,874.4 183.9,867.7 "/>
<polygon class="st2" points="674,357.2 678.1,361.2 669.2,369.6 665.1,365.6 "/>
<polygon class="st4" points="100.1,300.8 99.6,307.8 85.7,307.6 86.1,300.6 "/>
<polygon class="st2" points="861.1,377.6 854.7,379.3 851,370.5 857.4,368.8 "/>
<polygon class="st4" points="1221.4,566 1222.9,574 1215.1,575.2 1213.7,567.1 "/>
<polygon class="st1" points="993.4,1015.4 997.7,1024 980.7,1029.9 976.4,1021.3 "/>
<polygon class="st4" points="1063,686.6 1064,695.5 1039.2,699.4 1038.2,690.5 "/>
<polygon class="st4" points="588.6,37.1 582.3,42.9 568.5,27.9 574.9,22.1 "/>
<polygon class="st3" points="1179.6,614.7 1171.2,615.9 1166.2,601.5 1174.6,600.4 "/>
<polygon class="st3" points="328,552.9 329.6,558.6 323.9,560.6 322.2,554.9 "/>
<polygon class="st2" points="365.5,990.6 360.6,992.8 349.7,976.9 354.6,974.8 "/>
<polygon class="st4" points="1189.1,1317.4 1194.4,1319.8 1194.3,1332 1189,1329.6 "/>
<polygon class="st4" points="415.5,660.8 412.3,665.3 405.1,661.5 408.3,656.9 "/>
<polygon class="st4" points="962.1,1251.7 960.4,1257.4 949.3,1252.8 950.9,1247 "/>
<polygon class="st2" points="223.3,513.2 224.7,520.8 209.8,525.9 208.4,518.4 "/>
<polygon class="st1" points="1423.7,392 1417.8,392 1415.3,384.9 1421.2,384.9 "/>
<polygon class="st3" points="1628.9,759.8 1625.8,768 1611.8,761.6 1615,753.4 "/>
<polygon class="st1" points="860.8,373.1 862.4,377.7 852.9,381.5 851.4,376.8 "/>
<polygon class="st3" points="261.2,397.8 255.2,401.8 246.5,387.7 252.5,383.7 "/>
<polygon class="st2" points="625.3,77.8 626.3,83.8 618.4,84.4 617.4,78.4 "/>
<rect x="354.3" y="451.3" transform="matrix(0.9993 -3.620626e-02 3.620626e-02 0.9993 -16.1976 13.2676)" class="st3" width="7.9" height="5"/>
<polygon class="st4" points="872.4,-140.8 867,-138.2 864.7,-143.6 870.1,-146.3 "/>
<polygon class="st2" points="1414.5,967.7 1408,971.7 1397.2,959 1403.8,955 "/>
<polygon class="st3" points="646.2,959.7 644.2,966.6 628.8,956.9 630.7,950 "/>
<polygon class="st4" points="1184.4,807.9 1177.5,807.7 1173.9,798.5 1180.7,798.6 "/>
<polygon class="st3" points="1404.1,178.6 1403.9,185.6 1388.9,185.6 1389.1,178.6 "/>
<polygon class="st1" points="1147.4,614.5 1152,622.3 1136.6,631.4 1132,623.6 "/>
<polygon class="st2" points="180,963.9 185.6,966.5 181.8,975.5 176.3,973 "/>
<polygon class="st3" points="505,821.9 499.1,823.8 494.6,815.6 500.5,813.7 "/>
<polygon class="st2" points="869,712.2 869,720 846.4,726.1 846.4,718.3 "/>
<polygon class="st4" points="476.7,854.2 480.5,858.7 474.4,864.1 470.6,859.6 "/>
<polygon class="st4" points="1355.3,488.2 1361,496.2 1340.5,508.5 1334.8,500.5 "/>
<polygon class="st3" points="773.8,257.1 773.9,264 763.7,266.2 763.6,259.4 "/>
<polygon class="st2" points="982.8,201.9 975.7,207.1 969.1,198 976.2,192.8 "/>
<polygon class="st4" points="1209.3,1237.2 1206.3,1240 1195.8,1228.3 1198.8,1225.5 "/>
<polygon class="st2" points="232.1,34.4 233.5,42.4 216.7,44.2 215.3,36.2 "/>
<polygon class="st3" points="952.7,703.4 957.1,707.8 948.9,714.4 944.5,710 "/>
<polygon class="st2" points="1361.3,1207.3 1367.2,1213 1361.3,1219.2 1355.5,1213.5 "/>
<polygon class="st1" points="107.1,175.5 107,181.8 97,177.3 97.2,171 "/>
<polygon class="st4" points="871.5,732.1 866.1,733.3 863,725.1 868.4,723.9 "/>
<polygon class="st3" points="87.5,395.7 88.3,402.7 71.4,403.3 70.6,396.3 "/>
<polygon class="st4" points="891.2,501 897.2,502.2 896.4,516.1 890.4,514.9 "/>
<polygon class="st1" points="296.9,411.6 293.5,418.3 279.9,409.5 283.3,402.9 "/>
<polygon class="st2" points="206.1,972.5 203.9,980.3 192.6,976.5 194.7,968.8 "/>
<polygon class="st2" points="446.6,227.5 450.4,230.2 446.9,234.4 443.2,231.8 "/>
<polygon class="st2" points="965.2,772.5 973.2,776.6 969.1,797.5 961.1,793.5 "/>
<polygon class="st4" points="550.2,672.6 547.8,677.3 537.3,673 539.7,668.3 "/>
<polygon class="st4" points="-44.8,714 -43.5,722 -61,725.4 -62.3,717.5 "/>
<polygon class="st3" points="1316.3,436.3 1312.3,439.9 1301.5,428.7 1305.5,425.1 "/>
<polygon class="st3" points="453.1,342.3 452.3,347.3 438.5,346.3 439.3,341.3 "/>
<polygon class="st2" points="1057.1,434 1063.9,434.8 1058.9,450.8 1052.1,449.9 "/>
<polygon class="st1" points="285.1,131.4 289.1,135.4 277.9,146.6 273.8,142.6 "/>
<polygon class="st4" points="1136.5,928.5 1138.6,937.8 1117.4,934 1115.4,924.6 "/>
<polygon class="st1" points="1004.1,734.1 1012.8,738.4 1007,760.2 998.2,755.8 "/>
<polygon class="st2" points="1014.2,921.6 1022.3,926 1016.8,945.6 1008.6,941.1 "/>
<polygon class="st2" points="1356.7,642.2 1349.8,642.8 1347.7,634.8 1354.6,634.2 "/>
<polygon class="st3" points="186.3,230.4 190.8,238.3 183,242.6 178.5,234.7 "/>
<polygon class="st1" points="632.6,946.9 628.3,953.4 610.8,941.3 615.1,934.7 "/>
<polygon class="st1" points="1110.4,1226 1112.1,1233.4 1102.6,1233.2 1100.9,1225.8 "/>
<polygon class="st3" points="1202.5,961.9 1199.6,967.1 1188.6,959.8 1191.5,954.6 "/>
<polygon class="st4" points="1051.4,352.8 1049.4,359.5 1030.2,353.3 1032.3,346.6 "/>
<polygon class="st2" points="102.3,221.1 100.5,228 91.9,226.1 93.6,219.2 "/>
<polygon class="st3" points="382.5,571 390.3,575 384,592.3 376.2,588.3 "/>
<polygon class="st2" points="344,270 338.9,271.3 338.5,261.5 343.6,260.2 "/>
<rect x="892.6" y="237.7" transform="matrix(0.9876 -0.1569 0.1569 0.9876 -26.7409 143.5533)" class="st4" width="7" height="7"/>
<polygon class="st4" points="1372.5,651.6 1372.1,659.7 1354.2,660 1354.6,652 "/>
<polygon class="st3" points="698.5,944.8 695.2,950.8 680.2,942 683.5,936 "/>
<polygon class="st3" points="1094.8,348.7 1101.6,354.3 1093.6,365.3 1086.8,359.7 "/>
<polygon class="st2" points="1223.4,235.2 1224.7,241 1208.2,246 1207,240.2 "/>
<polygon class="st1" points="765.4,515.6 767.4,520.9 754,520.6 752.1,515.3 "/>
<polygon class="st3" points="880.7,448.9 888.2,455.5 876.2,469.1 868.8,462.6 "/>
<polygon class="st3" points="941.5,109.2 949.2,109.6 943.1,125.8 935.3,125.4 "/>
<polygon class="st2" points="882.8,624.7 890.8,631 885.4,639 877.3,632.7 "/>
<polygon class="st4" points="767.3,388.4 763.8,394.8 740.6,377.9 744.1,371.4 "/>
<polygon class="st3" points="1551.9,1253.8 1548.1,1255.7 1541.9,1247.1 1545.7,1245.2 "/>
<polygon class="st1" points="458.9,101.7 464.6,107.9 452.5,118.6 446.8,112.4 "/>
<polygon class="st3" points="826.9,540.7 834.3,545.1 832.7,551.8 825.4,547.4 "/>
<polygon class="st3" points="1070.9,954.1 1074.9,960.9 1063.5,964.5 1059.5,957.7 "/>
<polygon class="st4" points="652,147.2 646.3,154.7 639.3,149.6 645,142.2 "/>
<polygon class="st1" points="140.9,113.8 146.5,120.6 133.5,126.2 127.9,119.5 "/>
<polygon class="st1" points="857.6,239.1 861.1,242.4 853.6,250.8 850,247.5 "/>
<polygon class="st3" points="1286.1,658.9 1288.1,666.9 1266.2,660.4 1264.3,652.5 "/>
<polygon class="st2" points="998.7,769.1 1002.7,776 983.7,787.1 979.7,780.1 "/>
<polygon class="st1" points="804.9,204.1 797,203.8 797.2,194.8 805.1,195 "/>
<polygon class="st2" points="432,240.1 436.9,248.1 417.2,252 412.3,244 "/>
<polygon class="st2" points="851.6,879.5 847.8,886.2 828.3,871.8 832.1,865.1 "/>
<polygon class="st2" points="1137.9,275.7 1142.2,282.2 1135.1,286.1 1130.8,279.6 "/>
<polygon class="st3" points="1549,861 1548.7,868.8 1531.5,865.6 1531.8,857.7 "/>
<polygon class="st2" points="244,821.9 249,826.6 240.5,835.4 235.5,830.8 "/>
<polygon class="st1" points="917.1,712.5 912.7,717.2 897.9,703.8 902.3,699.1 "/>
<polygon class="st1" points="973.6,870.8 975.4,878.4 959.7,883.3 957.9,875.7 "/>
<polygon class="st4" points="596.4,374.7 596,382.7 575,380.1 575.4,372.2 "/>
<polygon class="st3" points="1184,-11.6 1189.8,-8 1182.7,3.1 1176.9,-0.5 "/>
<polygon class="st1" points="664.4,-29.3 671.9,-26.9 668,-16.4 660.5,-18.8 "/>
<polygon class="st2" points="646.4,334.6 651.9,342.3 642.4,348.5 636.8,340.7 "/>
<polygon class="st3" points="667,969.9 670.2,976.9 663.6,977.7 660.4,970.7 "/>
<polygon class="st4" points="601,773 599.5,777.9 589.9,776.2 591.5,771.2 "/>
<polygon class="st1" points="545.2,603.6 552.5,605.2 544.6,622 537.3,620.5 "/>
<polygon class="st4" points="967.2,540.5 964.6,545.4 955.6,539.2 958.2,534.4 "/>
<polygon class="st3" points="43.4,809.2 35.6,811.4 30.8,789.3 38.6,787.1 "/>
<rect x="685.8" y="57.1" transform="matrix(0.6886 -0.7252 0.7252 0.6886 166.2078 521.2837)" class="st2" width="8.4" height="20.1"/>
<polygon class="st2" points="41.9,507.3 36.6,510.4 31.3,501 36.6,497.9 "/>
<polygon class="st2" points="201.2,618.1 196.3,622.3 190.2,614.8 195.1,610.6 "/>
<polygon class="st2" points="502.1,335.6 494.8,337.2 491.5,329.1 498.8,327.6 "/>
<polygon class="st3" points="924.1,150.6 924.3,155.5 918.2,154.6 918,149.6 "/>
<rect x="679" y="675.9" transform="matrix(0.9976 -6.975964e-02 6.975964e-02 0.9976 -45.6891 49.4723)" class="st1" width="13" height="6"/>
<polygon class="st3" points="863.9,780.4 872.6,782.8 877.2,799.7 868.4,797.2 "/>
<polygon class="st3" points="441.4,668.6 445.5,672.1 435.4,683.6 431.2,680 "/>
<polygon class="st4" points="874.3,952.9 874.8,958.9 862.5,957 862,951 "/>
<polygon class="st3" points="245.4,327.7 251.3,327.8 249.9,339.9 244,339.8 "/>
<polygon class="st4" points="397.1,365.4 394.5,370 385,365.7 387.6,361.1 "/>
<polygon class="st3" points="419.4,380.3 417,385.4 403.8,376.1 406.2,371 "/>
<polygon class="st4" points="1111.5,1319.4 1114.2,1324.3 1106.8,1327.5 1104.1,1322.6 "/>
<polygon class="st1" points="781.5,499.6 779.5,504.1 768.7,498.2 770.6,493.7 "/>
<polygon class="st1" points="740.6,232.7 736.4,238.5 730.1,234 734.3,228.2 "/>
<polygon class="st3" points="844.1,390.5 835.2,391.9 833.5,372 842.4,370.6 "/>
<polygon class="st1" points="41.6,903.3 48,906.3 41.8,920.9 35.4,917.9 "/>
<polygon class="st4" points="687.7,1061.1 681.5,1060.3 678.3,1046.3 684.4,1047.1 "/>
<polygon class="st2" points="391,156.6 384.3,157.8 380.8,146.9 387.4,145.6 "/>
<polygon class="st4" points="354.1,483.8 358.5,488.4 346.6,499.3 342.3,494.7 "/>
<polygon class="st1" points="1147.5,984.5 1149.3,990.5 1142.5,991 1140.7,985 "/>
<polygon class="st4" points="1424.5,481.3 1424.2,490.2 1409.1,491.3 1409.4,482.3 "/>
<polygon class="st1" points="1022.1,200.1 1017.1,204.6 1006.1,193.8 1011.1,189.3 "/>
<polygon class="st4" points="842.2,234 839.9,239.7 831.6,236.7 834,231 "/>
<polygon class="st2" points="162.8,678.6 154.7,677.9 152.3,666.8 160.4,667.5 "/>
<polygon class="st4" points="520.2,10.3 520.5,16 512.1,13.8 511.8,8.1 "/>
<polygon class="st4" points="1366.6,737.3 1371.3,740 1368.4,746.8 1363.7,744.1 "/>
<rect x="483.8" y="524.6" transform="matrix(0.9063 -0.4227 0.4227 0.9063 -178.0987 255.1569)" class="st4" width="5" height="9"/>
<polygon class="st3" points="1611.1,362.7 1617.6,367.8 1610.7,377.5 1604.2,372.5 "/>
<polygon class="st2" points="307.3,786.1 312.2,788.4 309.2,798.2 304.3,795.9 "/>
<polygon class="st3" points="1114.1,105.5 1114.3,111.5 1103.3,112.7 1103.1,106.7 "/>
<polygon class="st2" points="822.1,414.2 819.1,421.4 806.7,413.9 809.8,406.7 "/>
<polygon class="st2" points="43.6,276 35.7,281.5 29.2,271.3 37,265.7 "/>
<polygon class="st2" points="243.4,951.1 247.5,957.2 233.1,966.3 229,960.2 "/>
<polygon class="st2" points="1565,1309.4 1561.9,1316.5 1542.6,1302.8 1545.8,1295.7 "/>
<polygon class="st4" points="1053.9,386.3 1052.9,391.5 1035.8,382.6 1036.8,377.5 "/>
<polygon class="st4" points="778.8,154.5 782.4,161.8 775.4,165.2 771.7,157.9 "/>
<polygon class="st4" points="1112,398 1117.1,399.5 1116.4,409.1 1111.3,407.6 "/>
<polygon class="st2" points="1357.8,596.6 1351.6,601.8 1346.8,595.7 1353,590.4 "/>
<polygon class="st1" points="163.3,1003.2 159.3,1005.1 152.8,994.4 156.9,992.6 "/>
<polygon class="st3" points="458.2,649.7 459.1,655.6 452.8,654.4 452,648.5 "/>
<polygon class="st4" points="944.4,100.8 952.2,105.6 940.9,126.2 933,121.4 "/>
<polygon class="st2" points="502.4,71.2 493.6,76.1 489.1,64.3 497.9,59.4 "/>
<polygon class="st1" points="1025.4,98.2 1030.3,99.4 1029.1,106.2 1024.2,105.1 "/>
<polygon class="st3" points="1724.8,969.8 1717.3,970.3 1705.3,947.8 1712.8,947.2 "/>
<polygon class="st2" points="1474.2,860.1 1470.2,865.8 1453.6,851.4 1457.6,845.7 "/>
<polygon class="st3" points="668.5,596.4 662.4,598.4 661,588 667.1,586 "/>
<polygon class="st3" points="870.2,364.8 876.6,366.6 872.7,376.4 866.3,374.6 "/>
<polygon class="st1" points="472,1174.4 475,1179 467.4,1184.2 464.5,1179.7 "/>
<polygon class="st1" points="681.8,684.5 688.5,688.8 682.6,700.8 676,696.6 "/>
<polygon class="st2" points="584.4,26.4 578.7,30 573.4,22.3 579.1,18.7 "/>
<polygon class="st3" points="1277.6,622.2 1278,631.1 1252.7,628.1 1252.4,619.1 "/>
<polygon class="st1" points="1101.9,727.3 1109.3,731.8 1105.4,740.2 1098,735.7 "/>
<polygon class="st2" points="1472.9,266.1 1466.9,266.9 1465.4,257 1471.3,256.2 "/>
<polygon class="st4" points="1329,368.1 1330.9,375 1316.7,371.6 1314.8,364.7 "/>
<polygon class="st3" points="28.5,822.7 36.1,825.9 30,845.4 22.4,842.3 "/>
<polygon class="st4" points="1397.6,51 1391.4,52.7 1391.5,43 1397.7,41.3 "/>
<polygon class="st3" points="925.4,705.6 919.4,704.5 919.2,696.3 925.1,697.4 "/>
<polygon class="st4" points="1634.9,721.5 1637.7,729.4 1627.2,731 1624.3,723 "/>
<polygon class="st3" points="1437.9,928.4 1441.4,937.1 1430.3,940.2 1426.8,931.5 "/>
<polygon class="st1" points="1239.1,828.5 1243.3,832.1 1237.8,839.1 1233.5,835.5 "/>
<polygon class="st1" points="410.8,812 416.5,814.7 414.6,820 408.8,817.3 "/>
<polygon class="st2" points="478.3,461.3 485.2,467.9 469.1,486.4 462.2,479.8 "/>
<polygon class="st2" points="650.6,488.3 657.1,491.1 656.3,505.5 649.8,502.8 "/>
<polygon class="st2" points="770.3,338.2 771.6,345.2 752.3,343.8 751,336.8 "/>
<polygon class="st3" points="917.7,462.7 912.5,467.3 901.2,454.2 906.4,449.6 "/>
<polygon class="st1" points="1724.5,989.3 1721.4,992.3 1709.7,980.9 1712.9,978 "/>
<polygon class="st2" points="993.5,1158.6 993.1,1164.6 982.3,1161.4 982.7,1155.4 "/>
<polygon class="st3" points="479.1,214.5 483.5,217.2 480.3,224.3 475.9,221.5 "/>
<polygon class="st1" points="1079.5,975 1082.4,982.9 1073.9,984.7 1071,976.9 "/>
<polygon class="st3" points="1311.3,272.7 1304.1,279.3 1289.7,262.7 1296.9,256 "/>
<polygon class="st1" points="811.2,935 812.9,943.1 803.2,944.5 801.6,936.4 "/>
<polygon class="st3" points="256.3,754.8 262.3,763.8 240.3,768.2 234.3,759.2 "/>
<polygon class="st1" points="1348.4,642.4 1353.3,649.6 1344.3,654.6 1339.4,647.4 "/>
<polygon class="st3" points="1329.8,887.1 1330,892.9 1321.7,889.9 1321.5,884 "/>
<polygon class="st2" points="634.3,236.8 630.6,243 620.6,236.1 624.3,229.8 "/>
<polygon class="st1" points="137.2,856.4 132.4,856.6 130.7,848.2 135.4,848.1 "/>
<polygon class="st3" points="1148.8,386 1149.4,393.9 1138.5,395.5 1137.9,387.5 "/>
<polygon class="st1" points="622.1,900 628.6,907.2 623.1,910.8 616.6,903.6 "/>
<polygon class="st2" points="269.2,766 267,772.6 254.8,765.4 257,758.8 "/>
<polygon class="st4" points="552.5,765.8 550.8,771.4 540.2,767.8 542,762.2 "/>
<polygon class="st1" points="368.9,226.8 364.1,227.3 360.2,216.4 365.1,215.9 "/>
<polygon class="st3" points="1410.6,235.5 1408.7,242 1392.2,235.6 1394.2,229.1 "/>
<polygon class="st2" points="278.1,559.8 281.7,567.9 270.6,569.8 267,561.7 "/>
<polygon class="st3" points="1286.8,-13.6 1285.5,-5.6 1271.6,-5.6 1272.8,-13.6 "/>
<polygon class="st2" points="1433.2,164.1 1430.1,170.1 1418.3,167.8 1421.4,161.8 "/>
<polygon class="st4" points="78.4,526.7 71.6,524.9 71.9,507.5 78.7,509.3 "/>
<polygon class="st1" points="165,143.2 161,148.7 151.9,141.8 156,136.3 "/>
<polygon class="st4" points="304.5,1010.7 305.5,1019.6 283.7,1014.8 282.7,1006 "/>
<polygon class="st2" points="781.6,499.2 779.1,502.5 769.7,495 772.2,491.7 "/>
<polygon class="st3" points="1671.5,818 1679,819.9 1680.2,827.7 1672.6,825.7 "/>
<polygon class="st1" points="1370,255.1 1372.9,259.7 1367.1,262.6 1364.2,257.9 "/>
<polygon class="st2" points="429,679.5 433.7,684.6 424,693.6 419.3,688.6 "/>
<polygon class="st4" points="521.9,714.9 520.5,722.7 508.8,717 510.2,709.2 "/>
<polygon class="st1" points="1333.2,1233.5 1332.2,1241.5 1320.5,1238.5 1321.5,1230.6 "/>
<polygon class="st1" points="612.2,1053.3 618.6,1058.7 611.7,1069 605.2,1063.7 "/>
<polygon class="st3" points="1348.1,460 1355.1,464.3 1352.5,471.7 1345.5,467.3 "/>
<polygon class="st2" points="563.9,437.9 555.9,438.7 554.8,420.6 562.7,419.8 "/>
<polygon class="st3" points="806.1,352.2 803.9,360.3 783.1,359.9 785.3,351.9 "/>
<rect x="36.4" y="130.4" transform="matrix(0.9877 -0.1565 0.1565 0.9877 -21.2426 7.8796)" class="st3" width="6" height="17"/>
<polygon class="st4" points="630.9,677 625.3,681.7 614.8,669.3 620.4,664.5 "/>
<polygon class="st2" points="1225.5,1125.8 1217.2,1126.8 1202.5,1100.3 1210.9,1099.4 "/>
<polygon class="st3" points="261.5,726 264.2,734 245.5,735 242.8,727 "/>
<polygon class="st2" points="1171.2,419.7 1169.5,428.6 1146,423.6 1147.8,414.7 "/>
<polygon class="st3" points="1514,506.6 1515.9,515.5 1506.6,514.4 1504.6,505.5 "/>
<polygon class="st1" points="243.7,525.4 248.4,530.2 241.9,536.8 237.1,532 "/>
<polygon class="st4" points="1521.6,179.6 1522.3,188.7 1512.4,189.1 1511.7,180 "/>
<polygon class="st3" points="469.1,266 474.7,269.9 464,286 458.3,282.1 "/>
<polygon class="st3" points="1035,677.6 1038,683.7 1026.4,686.1 1023.5,679.9 "/>
<polygon class="st3" points="491.2,271.9 494.6,275.7 487.1,282.1 483.8,278.3 "/>
<polygon class="st2" points="1049.6,395.2 1054.9,403.1 1042.4,407.3 1037.1,399.4 "/>
<polygon class="st3" points="437.8,590.9 429,590 425,566 433.8,567 "/>
<polygon class="st1" points="392.5,953.2 396.9,959.2 381.3,969.8 376.9,963.9 "/>
<polygon class="st4" points="269.7,38.3 276.7,41 273.2,57.6 266.2,54.9 "/>
<polygon class="st4" points="826.7,401.6 830.2,407.7 823.3,409.4 819.8,403.3 "/>
<polygon class="st1" points="1405,534.9 1399.9,538.5 1394.1,531.5 1399.2,528 "/>
<polygon class="st4" points="720.2,1068 714.8,1071.9 697.7,1052.8 703.1,1048.9 "/>
<polygon class="st1" points="1101.8,1002.7 1094.9,1004.2 1088.8,993.8 1095.7,992.4 "/>
<polygon class="st4" points="1386.4,654.7 1391.4,655.8 1390.7,662.7 1385.7,661.6 "/>
<polygon class="st4" points="1181.9,564.5 1181.9,572.4 1171.8,573.8 1171.8,565.9 "/>
<polygon class="st1" points="1393.4,492.5 1398.9,497.7 1386.5,510.5 1381.1,505.2 "/>
<polygon class="st3" points="768.5,919.9 763.7,924 754.5,915.1 759.3,911.1 "/>
<polygon class="st4" points="241.4,65.7 247.5,68 246.4,75.4 240.3,73.1 "/>
<polygon class="st2" points="342.4,99 339.9,101.8 331.9,95 334.5,92.2 "/>
<polygon class="st2" points="1456.1,-156.5 1462.7,-155.8 1455,-138.6 1448.4,-139.3 "/>
<polygon class="st2" points="1000.2,-115.3 994.6,-111.2 989.9,-117.7 995.5,-121.9 "/>
<polygon class="st2" points="770,468.4 768.3,472.4 761.6,467.7 763.4,463.6 "/>
<polygon class="st3" points="1856.5,1096.2 1850.3,1099.6 1834.4,1082.5 1840.6,1079 "/>
<polygon class="st4" points="1602.2,1009.6 1607.9,1018.8 1596.4,1022.3 1590.7,1013.1 "/>
<polygon class="st2" points="1090.3,948.9 1096,955.5 1083.6,964.5 1077.9,958 "/>
<polygon class="st3" points="770.5,688.4 766.2,694.9 757.7,689 762,682.5 "/>
<polygon class="st2" points="1429.9,1197.7 1426.7,1204.9 1408.3,1192.6 1411.5,1185.4 "/>
<polygon class="st2" points="186.3,323.9 177.6,325.3 174.7,312.4 183.4,311 "/>
<polygon class="st1" points="1327.6,1071.8 1330.5,1081.3 1320.2,1081.9 1317.3,1072.5 "/>
<polygon class="st4" points="543.6,937.2 551.5,943.1 547.4,950.7 539.6,944.8 "/>
<polygon class="st3" points="1136.1,1050.5 1140.2,1059.8 1121.6,1061.3 1117.6,1051.9 "/>
<polygon class="st1" points="1439,631.8 1433.3,636.7 1426.1,628.7 1431.7,623.8 "/>
<polygon class="st1" points="962.1,976.7 956.4,976.7 955.3,966.2 961,966.2 "/>
<polygon class="st2" points="627.6,-23 621.5,-16.7 615.5,-22.2 621.6,-28.6 "/>
<polygon class="st1" points="1404.6,-143 1401.6,-136.2 1395.2,-138 1398.2,-144.8 "/>
<polygon class="st1" points="361.1,356.2 355.9,362.2 349.3,355.9 354.5,350 "/>
<polygon class="st3" points="464.1,122.4 465.6,126.8 456.1,131.8 454.5,127.4 "/>
<polygon class="st1" points="353.2,634.4 359.4,635.9 360.3,648.7 354.1,647.2 "/>
<polygon class="st1" points="1156.3,447.6 1154.7,451.4 1142.3,443.5 1143.9,439.7 "/>
<polygon class="st1" points="966,868.6 961.8,874.9 949.6,865.2 953.8,858.9 "/>
<polygon class="st3" points="792.5,-28.8 790.9,-23.8 780.3,-25.5 781.9,-30.5 "/>
<polygon class="st3" points="1152.4,302.3 1148.3,305 1141.4,294.8 1145.5,292.1 "/>
<polygon class="st1" points="699.6,358.1 702.2,367.2 682.2,370.5 679.6,361.5 "/>
<polygon class="st3" points="26.1,153.2 25.8,160 13.7,156 14,149.2 "/>
<polygon class="st4" points="1525.8,307.7 1518.4,309.1 1514,299.1 1521.3,297.7 "/>
<polygon class="st4" points="88.1,17.5 79.5,22 74.2,8.1 82.8,3.6 "/>
<polygon class="st3" points="128.1,764 124.1,768.4 116.6,761.6 120.7,757.2 "/>
<polygon class="st3" points="613.1,388.5 615.9,396.1 603.9,400.4 601,392.8 "/>
<polygon class="st2" points="152.1,233 159,241.8 152,244.7 145.1,235.9 "/>
<polygon class="st4" points="1282.6,21.4 1286.7,26.5 1277.1,33.6 1273,28.5 "/>
<polygon class="st4" points="231.5,189.8 238.1,192.5 232.3,208.2 225.7,205.5 "/>
<polygon class="st1" points="1491.6,1239 1485.5,1238.6 1477.9,1221.3 1483.9,1221.6 "/>
<polygon class="st3" points="836,553.6 837.6,560.5 821.9,554.9 820.3,548.1 "/>
<polygon class="st3" points="575.4,631.5 572.6,639.8 549.7,630 552.5,621.7 "/>
<polygon class="st1" points="1339.7,684.6 1344.9,687.6 1342.3,694.8 1337.1,691.7 "/>
<polygon class="st2" points="936.6,353.3 937.8,358.3 924.3,360 923,355 "/>
<polygon class="st1" points="242,299.4 243,305.6 232.3,305.2 231.3,299 "/>
<polygon class="st2" points="544.3,503.6 548.1,509.7 539.4,511.3 535.6,505.2 "/>
<polygon class="st2" points="352.7,891.6 361.8,898.1 357.4,908.9 348.3,902.4 "/>
<polygon class="st1" points="1090,1086.1 1098.1,1088 1097.4,1101.7 1089.3,1099.7 "/>
<polygon class="st4" points="463.2,434.1 467.1,437 461.4,444.4 457.5,441.5 "/>
<polygon class="st1" points="413.1,581.8 408.1,581.3 407.5,574.2 412.5,574.7 "/>
<polygon class="st2" points="347,935.8 349.6,943.7 333.5,947.3 331,939.4 "/>
<polygon class="st2" points="1263.7,414.1 1262.7,421.3 1248,414.9 1249,407.7 "/>
<polygon class="st1" points="42.1,729.1 37.7,733 27.1,720.4 31.5,716.6 "/>
<polygon class="st1" points="1449.2,434.3 1445.1,438.2 1434.9,427.4 1439,423.5 "/>
<polygon class="st4" points="1046.6,461.1 1047.5,466.2 1036.6,466.4 1035.7,461.3 "/>
<polygon class="st1" points="295,925.1 288.6,929.2 280.9,918.1 287.4,913.9 "/>
</svg>
